<svg width="14" height="14" viewBox="0 0 14 14" fill="none" xmlns="http://www.w3.org/2000/svg">
<path d="M4.27778 1.74806C4.27778 1.28444 4.46215 0.839819 4.79034 0.511994C5.11853 0.18417 5.56365 0 6.02778 0H7.97222C8.43635 0 8.88147 0.18417 9.20966 0.511994C9.53785 0.839819 9.72222 1.28444 9.72222 1.74806V3.1232H12.25C12.7141 3.1232 13.1592 3.30737 13.4874 3.63519C13.8156 3.96302 14 4.40764 14 4.87125V13.4173C14 13.5719 13.9385 13.7201 13.8291 13.8293C13.7198 13.9386 13.5714 14 13.4167 14H0.583333C0.428624 14 0.280251 13.9386 0.170854 13.8293C0.0614581 13.7201 0 13.5719 0 13.4173V7.202C0 6.73838 0.184374 6.29376 0.512563 5.96593C0.840752 5.63811 1.28587 5.45394 1.75 5.45394H4.27778V1.74806ZM5.44444 12.8346H8.55556V1.74806C8.55556 1.59352 8.4941 1.44531 8.3847 1.33604C8.2753 1.22676 8.12693 1.16537 7.97222 1.16537H6.02778C5.87307 1.16537 5.7247 1.22676 5.6153 1.33604C5.5059 1.44531 5.44444 1.59352 5.44444 1.74806V12.8346ZM4.27778 6.61931H1.75C1.59529 6.61931 1.44692 6.6807 1.33752 6.78998C1.22812 6.89925 1.16667 7.04746 1.16667 7.202V12.8346H4.27778V6.61931ZM9.72222 12.8346H12.8333V4.87125C12.8333 4.71672 12.7719 4.56851 12.6625 4.45923C12.5531 4.34996 12.4047 4.28857 12.25 4.28857H9.72222V12.8346Z" fill="#82CAD7"/>
</svg>
