<svg width="17" height="28" viewBox="0 0 17 28" fill="none" xmlns="http://www.w3.org/2000/svg">
<path d="M0 19.25C0 21.6767 0.827335 23.7417 2.482 25.445C4.13667 27.1483 6.14267 28 8.5 28C10.8573 28 12.8633 27.1483 14.518 25.445C16.1727 23.7417 17 21.6767 17 19.25V6.3C17 4.55 16.4048 3.06273 15.2143 1.8382C14.0239 0.613668 12.5791 0.000934398 10.88 1.06464e-06C9.18091 -0.000932269 7.73568 0.611801 6.54432 1.8382C5.35296 3.0646 4.75819 4.55187 4.76 6.3V18.55C4.76 19.6233 5.12267 20.5333 5.848 21.28C6.57333 22.0267 7.45733 22.4 8.5 22.4C9.54267 22.4 10.4267 22.0267 11.152 21.28C11.8773 20.5333 12.24 19.6233 12.24 18.55V5.6H9.52V18.55C9.52 18.8533 9.42344 19.1044 9.23032 19.3032C9.0372 19.502 8.79376 19.6009 8.5 19.6C8.20624 19.5991 7.96235 19.4997 7.76832 19.3018C7.57429 19.1039 7.47819 18.8533 7.48 18.55V6.3C7.50267 5.32 7.83677 4.49167 8.48232 3.815C9.12787 3.13833 9.92709 2.8 10.88 2.8C11.8329 2.8 12.6376 3.13833 13.294 3.815C13.9504 4.49167 14.2791 5.32 14.28 6.3V19.25C14.3027 20.9067 13.7473 22.3127 12.614 23.4682C11.4807 24.6237 10.1093 25.2009 8.5 25.2C6.91333 25.2 5.56467 24.6227 4.454 23.4682C3.34333 22.3137 2.76533 20.9076 2.72 19.25V5.6H0V19.25Z" fill="black"/>
</svg>
