<svg width="13" height="12" viewBox="0 0 13 12" fill="none" xmlns="http://www.w3.org/2000/svg">
<path d="M11.3913 3C11.141 3.00084 10.8975 3.0828 10.696 3.234L9.6649 2.754L10.8021 2.226C10.9799 2.33596 11.1832 2.39599 11.3913 2.4C11.6243 2.4 11.8521 2.32962 12.0459 2.19776C12.2397 2.06591 12.3908 1.87849 12.4799 1.65922C12.5691 1.43995 12.5925 1.19867 12.547 0.965892C12.5015 0.733115 12.3893 0.519295 12.2245 0.351472C12.0597 0.183649 11.8497 0.0693605 11.6211 0.0230582C11.3926 -0.0232441 11.1556 0.000519937 10.9403 0.0913451C10.725 0.18217 10.5409 0.335977 10.4115 0.533316C10.282 0.730655 10.2129 0.962663 10.2129 1.2L9.09928 1.722C8.94712 1.61195 8.77148 1.54028 8.5868 1.51288C8.40213 1.48549 8.2137 1.50315 8.03704 1.56441C7.86038 1.62568 7.70053 1.7288 7.57066 1.86528C7.44079 2.00176 7.34461 2.1677 7.29004 2.34944C7.23546 2.53118 7.22406 2.72353 7.25676 2.91063C7.28947 3.09774 7.36534 3.27426 7.47815 3.42566C7.59095 3.57706 7.73745 3.69902 7.90559 3.78149C8.07373 3.86395 8.2587 3.90457 8.44527 3.9C8.63502 3.89956 8.82155 3.85001 8.98733 3.756L10.2246 4.356C10.2541 4.5848 10.3477 4.8001 10.4943 4.9761C10.6408 5.1521 10.8341 5.28133 11.0509 5.34832C11.2678 5.41531 11.499 5.41721 11.7169 5.3538C11.9348 5.29038 12.1301 5.16434 12.2794 4.99077C12.4287 4.8172 12.5257 4.60347 12.5588 4.37519C12.5919 4.1469 12.5596 3.91375 12.4659 3.70366C12.3722 3.49356 12.221 3.31544 12.0303 3.19064C11.8397 3.06584 11.6179 2.99965 11.3913 3ZM10.8021 6.6C10.6458 6.6 10.4959 6.66322 10.3854 6.77574C10.2749 6.88826 10.2129 7.04087 10.2129 7.2V7.434L9.34085 6.546C9.18916 6.39053 9.00877 6.26715 8.81008 6.18295C8.61138 6.09876 8.39829 6.05541 8.18308 6.05541C7.96786 6.05541 7.75477 6.09876 7.55607 6.18295C7.35738 6.26715 7.17699 6.39053 7.0253 6.546L6.61287 6.966L5.15166 5.472C4.84376 5.16093 4.42761 4.98638 3.99389 4.98638C3.56017 4.98638 3.14402 5.16093 2.83612 5.472L1.96411 6.36V3C1.96411 2.84087 2.02618 2.68826 2.13668 2.57574C2.24717 2.46321 2.39704 2.4 2.5533 2.4H5.49929C5.65555 2.4 5.80541 2.33679 5.91591 2.22426C6.02641 2.11174 6.08848 1.95913 6.08848 1.8C6.08848 1.64087 6.02641 1.48826 5.91591 1.37574C5.80541 1.26321 5.65555 1.2 5.49929 1.2H2.5533C2.08451 1.2 1.63492 1.38964 1.30343 1.72721C0.971941 2.06477 0.785713 2.52261 0.785713 3V10.2C0.785713 10.6774 0.971941 11.1352 1.30343 11.4728C1.63492 11.8104 2.08451 12 2.5533 12H9.62366C10.0925 12 10.542 11.8104 10.8735 11.4728C11.205 11.1352 11.3913 10.6774 11.3913 10.2V7.2C11.3913 7.04087 11.3292 6.88826 11.2187 6.77574C11.1082 6.66322 10.9583 6.6 10.8021 6.6ZM2.5533 10.8C2.39704 10.8 2.24717 10.7368 2.13668 10.6243C2.02618 10.5117 1.96411 10.3591 1.96411 10.2V8.058L3.67278 6.318C3.75934 6.234 3.87432 6.18714 3.99389 6.18714C4.11346 6.18714 4.22844 6.234 4.315 6.318L6.18275 8.22L8.71041 10.8H2.5533ZM10.2129 10.2C10.2116 10.3148 10.1744 10.4262 10.1068 10.518L7.44953 7.8L7.86196 7.38C7.94807 7.2928 8.06458 7.24385 8.18602 7.24385C8.30746 7.24385 8.42397 7.2928 8.51008 7.38L10.2129 9.132V10.2Z" fill="#32A623"/>
</svg>
