<svg width="45" height="45" viewBox="0 0 45 45" fill="none" xmlns="http://www.w3.org/2000/svg">
<circle cx="22.5" cy="22.5" r="22.5" fill="#D7D7D7"/>
<path d="M21.5 33C21.5 33.8284 22.1716 34.5 23 34.5C23.8284 34.5 24.5 33.8284 24.5 33H21.5ZM24.0607 11.9393C23.4749 11.3536 22.5251 11.3536 21.9393 11.9393L12.3934 21.4853C11.8076 22.0711 11.8076 23.0208 12.3934 23.6066C12.9792 24.1924 13.9289 24.1924 14.5147 23.6066L23 15.1213L31.4853 23.6066C32.0711 24.1924 33.0208 24.1924 33.6066 23.6066C34.1924 23.0208 34.1924 22.0711 33.6066 21.4853L24.0607 11.9393ZM24.5 33V13H21.5V33H24.5Z" fill="#F5F5F5"/>
</svg>
