<svg width="15" height="14" viewBox="0 0 15 14" fill="none" xmlns="http://www.w3.org/2000/svg">
<path d="M7.5625 9.79995H3.4375C3.25516 9.79995 3.0803 9.8737 2.95136 10.005C2.82243 10.1362 2.75 10.3143 2.75 10.4999C2.75 10.6856 2.82243 10.8636 2.95136 10.9949C3.0803 11.1262 3.25516 11.1999 3.4375 11.1999H7.5625C7.74484 11.1999 7.9197 11.1262 8.04864 10.9949C8.17757 10.8636 8.25 10.6856 8.25 10.4999C8.25 10.3143 8.17757 10.1362 8.04864 10.005C7.9197 9.8737 7.74484 9.79995 7.5625 9.79995ZM3.4375 8.39997H5.5C5.68234 8.39997 5.8572 8.32623 5.98614 8.19495C6.11507 8.06368 6.1875 7.88564 6.1875 7.69999C6.1875 7.51434 6.11507 7.33629 5.98614 7.20502C5.8572 7.07375 5.68234 7 5.5 7H3.4375C3.25516 7 3.0803 7.07375 2.95136 7.20502C2.82243 7.33629 2.75 7.51434 2.75 7.69999C2.75 7.88564 2.82243 8.06368 2.95136 8.19495C3.0803 8.32623 3.25516 8.39997 3.4375 8.39997Z" fill="#F4871B"/>
<path d="M10.8212 4.43105L7.08125 0.231122C7.01697 0.158608 6.9385 0.100595 6.85088 0.0608117C6.76326 0.0210286 6.66844 0.000356857 6.5725 0.000125981H1.76C1.53158 -0.00264813 1.30486 0.0404173 1.09278 0.126863C0.880707 0.213309 0.687434 0.341442 0.524 0.503945C0.360566 0.666448 0.230171 0.860137 0.140262 1.07395C0.0503539 1.28777 0.00269251 1.51752 0 1.75009V12.2499C0.00269251 12.4825 0.0503539 12.7122 0.140262 12.926C0.230171 13.1399 0.360566 13.3336 0.524 13.4961C0.687434 13.6586 0.880707 13.7867 1.09278 13.8731C1.30486 13.9596 1.53158 14.0026 1.76 13.9999H9.24C9.46842 14.0026 9.69514 13.9596 9.90722 13.8731C10.1193 13.7867 10.3126 13.6586 10.476 13.4961C10.6394 13.3336 10.7698 13.1399 10.8597 12.926C10.9496 12.7122 10.9973 12.4825 11 12.2499V4.90004C10.9996 4.72656 10.9359 4.55942 10.8212 4.43105ZM6.875 2.10009L8.75875 4.20005H7.38375C7.31175 4.19562 7.24135 4.17664 7.17663 4.14421C7.11192 4.11178 7.0542 4.06656 7.00684 4.01117C6.95948 3.95578 6.92343 3.89134 6.9008 3.82162C6.87816 3.75189 6.86939 3.67827 6.875 3.60506V2.10009ZM9.24 12.5999H1.76C1.71213 12.6027 1.66419 12.5959 1.61891 12.5799C1.57363 12.5638 1.53191 12.5388 1.49615 12.5063C1.46038 12.4738 1.43127 12.4344 1.41048 12.3904C1.38969 12.3464 1.37763 12.2987 1.375 12.2499V1.75009C1.37763 1.70135 1.38969 1.65361 1.41048 1.60962C1.43127 1.56563 1.46038 1.52624 1.49615 1.49373C1.53191 1.46121 1.57363 1.43621 1.61891 1.42014C1.66419 1.40407 1.71213 1.39726 1.76 1.4001H5.5V3.60506C5.4889 4.12069 5.67858 4.61985 6.02763 4.99361C6.37669 5.36736 6.85678 5.58536 7.36312 5.60003H9.625V12.2499C9.62237 12.2987 9.61031 12.3464 9.58952 12.3904C9.56873 12.4344 9.53962 12.4738 9.50385 12.5063C9.46809 12.5388 9.42637 12.5638 9.38109 12.5799C9.33582 12.5959 9.28787 12.6027 9.24 12.5999Z" fill="#F4871B"/>
</svg>
