<svg width="13" height="13" viewBox="0 0 13 13" fill="none" xmlns="http://www.w3.org/2000/svg">
<path d="M0.382301 0C0.280909 0 0.183669 0.0489143 0.111974 0.135982C0.0402781 0.22305 0 0.341139 0 0.464272C0 0.587405 0.0402781 0.705494 0.111974 0.792562C0.183669 0.87963 0.280909 0.928544 0.382301 0.928544H4.58762C4.68901 0.928544 4.78625 0.87963 4.85794 0.792562C4.92964 0.705494 4.96992 0.587405 4.96992 0.464272C4.96992 0.341139 4.92964 0.22305 4.85794 0.135982C4.78625 0.0489143 4.68901 0 4.58762 0H0.382301ZM2.67611 2.78563C2.57472 2.78563 2.47748 2.83455 2.40578 2.92161C2.33409 3.00868 2.29381 3.12677 2.29381 3.2499C2.29381 3.37304 2.33409 3.49113 2.40578 3.57819C2.47748 3.66526 2.57472 3.71418 2.67611 3.71418H6.49912C6.60051 3.71418 6.69775 3.66526 6.76945 3.57819C6.84114 3.49113 6.88142 3.37304 6.88142 3.2499C6.88142 3.12677 6.84114 3.00868 6.76945 2.92161C6.69775 2.83455 6.60051 2.78563 6.49912 2.78563H2.67611ZM1.5292 6.03554C1.5292 5.9124 1.56948 5.79431 1.64118 5.70725C1.71287 5.62018 1.81011 5.57126 1.91151 5.57126H9.13241L8.36781 6.49981H1.91151C1.81011 6.49981 1.71287 6.45089 1.64118 6.36383C1.56948 6.27676 1.5292 6.15867 1.5292 6.03554ZM6.32632 8.97902L6.8386 8.3569H0.382301C0.280909 8.3569 0.183669 8.40581 0.111974 8.49288C0.0402781 8.57995 0 8.69804 0 8.82117C0 8.9443 0.0402781 9.06239 0.111974 9.14946C0.183669 9.23653 0.280909 9.28544 0.382301 9.28544H6.10612C6.1734 9.17773 6.2468 9.07559 6.32632 8.97902ZM8.02833 3.2499C8.02833 3.12677 8.0686 3.00868 8.1403 2.92161C8.21199 2.83455 8.30923 2.78563 8.41063 2.78563H11.0867C11.1881 2.78563 11.2854 2.83455 11.3571 2.92161C11.4288 3.00868 11.469 3.12677 11.469 3.2499C11.469 3.37304 11.4288 3.49113 11.3571 3.57819C11.2854 3.66526 11.1881 3.71418 11.0867 3.71418H8.41063C8.30923 3.71418 8.21199 3.66526 8.1403 3.57819C8.0686 3.49113 8.02833 3.37304 8.02833 3.2499ZM6.49912 0C6.39773 0 6.30049 0.0489143 6.22879 0.135982C6.1571 0.22305 6.11682 0.341139 6.11682 0.464272C6.11682 0.587405 6.1571 0.705494 6.22879 0.792562C6.30049 0.87963 6.39773 0.928544 6.49912 0.928544H11.469C11.5704 0.928544 11.6677 0.87963 11.7394 0.792562C11.8111 0.705494 11.8513 0.587405 11.8513 0.464272C11.8513 0.341139 11.8111 0.22305 11.7394 0.135982C11.6677 0.0489143 11.5704 0 11.469 0H6.49912ZM6.86613 9.6355L10.5592 5.15063C10.8274 4.82507 11.1912 4.64227 11.5705 4.64244C11.9498 4.64262 12.3135 4.82575 12.5815 5.15156C12.8496 5.47737 13.0001 5.91917 13 6.37975C12.9999 6.84034 12.8491 7.282 12.5808 7.60756L8.88774 12.0915C8.67253 12.3528 8.403 12.5383 8.10784 12.6282L6.96247 12.9755C6.84858 13.0099 6.72929 13.008 6.61618 12.97C6.50307 12.9319 6.39999 12.859 6.31696 12.7582C6.23392 12.6575 6.17376 12.5324 6.14231 12.395C6.11086 12.2577 6.10919 12.1128 6.13746 11.9745L6.42419 10.5835C6.49825 10.2251 6.65099 9.89778 6.86613 9.63643" fill="#F38AF3"/>
</svg>
